<svg width="263" height="23" viewBox="0 0 263 23" version="1.1" xmlns="http://www.w3.org/2000/svg" xmlns:xlink="http://www.w3.org/1999/xlink">
<title>Page 1</title>
<desc>Created using Figma</desc>
<g id="Canvas" transform="translate(-24243 -22734)">
<g id="The debt SYNDICATE">
<use xlink:href="#path0_fill" transform="translate(24242.7 22734)" fill="#2B2B2B"/>
</g>
<g id="Vector 2.1">
<use xlink:href="#path1_stroke" transform="matrix(0.978148 -0.207912 0.207912 0.978148 24298.2 22735.7)" fill="#FF4630"/>
</g>
</g>
<defs>
<path id="path0_fill" d="M 0.644 5.463C 0.644 5.30967 0.69 5.187 0.782 5.095C 0.889333 4.98767 1.035 4.934 1.219 4.934L 14.973 4.934C 15.157 4.934 15.295 4.98767 15.387 5.095C 15.4943 5.187 15.548 5.30967 15.548 5.463L 15.548 8.2C 15.548 8.49133 15.3793 8.637 15.042 8.637L 10.971 8.637C 10.787 8.637 10.695 8.71367 10.695 8.867L 10.695 21.494C 10.695 21.6627 10.6567 21.793 10.58 21.885C 10.5033 21.9617 10.396 22 10.258 22L 5.888 22C 5.612 22 5.474 21.8467 5.474 21.54L 5.474 8.959C 5.474 8.74433 5.38967 8.637 5.221 8.637L 1.173 8.637C 0.820333 8.637 0.644 8.49133 0.644 8.2L 0.644 5.463ZM 22.9793 15.169C 22.872 15.169 22.78 15.2073 22.7033 15.284C 22.642 15.3453 22.6113 15.422 22.6113 15.514L 22.6113 21.333C 22.6113 21.5783 22.55 21.7547 22.4273 21.862C 22.3047 21.954 22.113 22 21.8523 22L 18.0113 22C 17.7813 22 17.6203 21.954 17.5283 21.862C 17.4363 21.77 17.3903 21.6243 17.3903 21.425L 17.3903 5.463C 17.3903 5.29433 17.4287 5.164 17.5053 5.072C 17.582 4.98 17.6893 4.934 17.8273 4.934L 22.1973 4.934C 22.32 4.934 22.4197 4.98 22.4963 5.072C 22.573 5.14867 22.6113 5.26367 22.6113 5.417L 22.6113 10.753C 22.6113 11.0597 22.7493 11.213 23.0253 11.213L 26.8893 11.213C 27.1653 11.213 27.3033 11.0597 27.3033 10.753L 27.3033 5.417C 27.3033 5.26367 27.3417 5.14867 27.4183 5.072C 27.495 4.98 27.5947 4.934 27.7173 4.934L 32.0873 4.934C 32.2253 4.934 32.3327 4.98 32.4093 5.072C 32.486 5.164 32.5243 5.29433 32.5243 5.463L 32.5243 21.425C 32.5243 21.6243 32.4783 21.77 32.3863 21.862C 32.2943 21.954 32.1333 22 31.9033 22L 28.0623 22C 27.8017 22 27.61 21.954 27.4873 21.862C 27.3647 21.7547 27.3033 21.5783 27.3033 21.333L 27.3033 15.514C 27.3033 15.422 27.265 15.3453 27.1883 15.284C 27.127 15.2073 27.0427 15.169 26.9353 15.169L 22.9793 15.169ZM 34.9099 5.463C 34.9099 5.11033 35.0555 4.934 35.3469 4.934L 47.7669 4.934C 48.0429 4.934 48.1809 5.095 48.1809 5.417L 48.1579 8.085C 48.1579 8.499 47.9585 8.706 47.5599 8.706L 40.6599 8.706C 40.3072 8.706 40.1309 8.85167 40.1309 9.143L 40.1309 11.098C 40.1309 11.2513 40.1692 11.374 40.2459 11.466C 40.3225 11.5427 40.4222 11.581 40.5449 11.581L 44.6849 11.581C 45.0069 11.581 45.1679 11.7343 45.1679 12.041L 45.1679 14.893C 45.1679 15.1537 45.0299 15.284 44.7539 15.284L 40.4989 15.284C 40.3915 15.284 40.2995 15.3147 40.2229 15.376C 40.1615 15.4373 40.1309 15.514 40.1309 15.606L 40.1309 17.906C 40.1309 18.0287 40.1462 18.113 40.1769 18.159C 40.2229 18.205 40.2995 18.228 40.4069 18.228L 47.8819 18.228C 48.2192 18.228 48.3879 18.3737 48.3879 18.665L 48.3879 21.494C 48.3879 21.6473 48.3419 21.77 48.2499 21.862C 48.1579 21.954 48.0199 22 47.8359 22L 35.5309 22C 35.3009 22 35.1399 21.954 35.0479 21.862C 34.9559 21.77 34.9099 21.6243 34.9099 21.425L 34.9099 5.463ZM 58.28 4.934C 60.1047 4.934 61.2394 4.94167 61.684 4.957C 64.674 5.06433 66.9357 5.877 68.469 7.395C 70.0024 8.89767 70.769 10.9063 70.769 13.421C 70.769 15.1077 70.424 16.595 69.734 17.883C 69.044 19.171 68.0167 20.183 66.652 20.919C 65.2874 21.6397 63.6237 22 61.661 22L 55.612 22C 55.382 22 55.2134 21.9463 55.106 21.839C 54.9987 21.7317 54.945 21.5553 54.945 21.31L 54.945 5.509C 54.945 5.29433 54.991 5.14867 55.083 5.072C 55.175 4.98 55.336 4.934 55.566 4.934L 58.28 4.934ZM 60.396 8.545C 60.3194 8.545 60.258 8.568 60.212 8.614C 60.1814 8.66 60.166 8.74433 60.166 8.867L 60.166 18.044C 60.166 18.182 60.189 18.274 60.235 18.32C 60.281 18.366 60.3654 18.389 60.488 18.389L 60.649 18.389C 62.167 18.389 63.317 17.998 64.099 17.216C 64.8964 16.4187 65.295 15.1307 65.295 13.352C 65.295 11.8187 64.996 10.6763 64.398 9.925C 63.8 9.17367 62.926 8.74433 61.776 8.637L 60.396 8.545ZM 72.6892 5.463C 72.6892 5.11033 72.8348 4.934 73.1262 4.934L 85.5462 4.934C 85.8222 4.934 85.9602 5.095 85.9602 5.417L 85.9372 8.085C 85.9372 8.499 85.7378 8.706 85.3392 8.706L 78.4392 8.706C 78.0865 8.706 77.9102 8.85167 77.9102 9.143L 77.9102 11.098C 77.9102 11.2513 77.9485 11.374 78.0252 11.466C 78.1018 11.5427 78.2015 11.581 78.3242 11.581L 82.4642 11.581C 82.7862 11.581 82.9472 11.7343 82.9472 12.041L 82.9472 14.893C 82.9472 15.1537 82.8092 15.284 82.5332 15.284L 78.2782 15.284C 78.1708 15.284 78.0788 15.3147 78.0022 15.376C 77.9408 15.4373 77.9102 15.514 77.9102 15.606L 77.9102 17.906C 77.9102 18.0287 77.9255 18.113 77.9562 18.159C 78.0022 18.205 78.0788 18.228 78.1862 18.228L 85.6612 18.228C 85.9985 18.228 86.1672 18.3737 86.1672 18.665L 86.1672 21.494C 86.1672 21.6473 86.1212 21.77 86.0292 21.862C 85.9372 21.954 85.7992 22 85.6152 22L 73.3102 22C 73.0802 22 72.9192 21.954 72.8272 21.862C 72.7352 21.77 72.6892 21.6243 72.6892 21.425L 72.6892 5.463ZM 88.6488 22C 88.4955 22 88.3652 21.954 88.2578 21.862C 88.1658 21.7547 88.1198 21.632 88.1198 21.494L 88.1198 5.532C 88.1198 5.36333 88.1735 5.22533 88.2808 5.118C 88.3882 4.99533 88.5262 4.934 88.6948 4.934L 95.5488 4.934C 97.9408 4.934 99.7502 5.31733 100.977 6.084C 102.219 6.83533 102.84 7.95467 102.84 9.442C 102.84 10.2547 102.617 10.9447 102.173 11.512C 101.728 12.064 100.946 12.6007 99.8268 13.122C 99.7962 13.1373 99.7808 13.168 99.7808 13.214C 99.7808 13.2447 99.7962 13.2677 99.8268 13.283C 101.069 13.743 101.95 14.2873 102.472 14.916C 102.993 15.5447 103.254 16.3573 103.254 17.354C 103.254 18.9333 102.648 20.1063 101.437 20.873C 100.241 21.6243 98.4008 22 95.9168 22L 88.6488 22ZM 95.9168 11.604C 96.4535 11.604 96.8828 11.4583 97.2048 11.167C 97.5268 10.8757 97.6878 10.5 97.6878 10.04C 97.6878 9.54933 97.5038 9.15067 97.1358 8.844C 96.7678 8.53733 96.3078 8.384 95.7558 8.384L 93.8698 8.384C 93.6705 8.384 93.5325 8.42233 93.4558 8.499C 93.3792 8.56033 93.3408 8.67533 93.3408 8.844L 93.3408 11.098C 93.3408 11.282 93.3715 11.4123 93.4328 11.489C 93.4942 11.5657 93.5938 11.604 93.7318 11.604L 95.9168 11.604ZM 95.8018 18.55C 96.4305 18.55 96.9212 18.3737 97.2738 18.021C 97.6418 17.6683 97.8258 17.2543 97.8258 16.779C 97.8258 16.3037 97.6495 15.9127 97.2968 15.606C 96.9442 15.2993 96.4842 15.146 95.9168 15.146L 93.8698 15.146C 93.6705 15.146 93.5325 15.1843 93.4558 15.261C 93.3792 15.3377 93.3408 15.4603 93.3408 15.629L 93.3408 18.044C 93.3408 18.228 93.3715 18.3583 93.4328 18.435C 93.4942 18.5117 93.5938 18.55 93.7318 18.55L 95.8018 18.55ZM 104.122 5.463C 104.122 5.30967 104.168 5.187 104.26 5.095C 104.367 4.98767 104.513 4.934 104.697 4.934L 118.451 4.934C 118.635 4.934 118.773 4.98767 118.865 5.095C 118.972 5.187 119.026 5.30967 119.026 5.463L 119.026 8.2C 119.026 8.49133 118.857 8.637 118.52 8.637L 114.449 8.637C 114.265 8.637 114.173 8.71367 114.173 8.867L 114.173 21.494C 114.173 21.6627 114.134 21.793 114.058 21.885C 113.981 21.9617 113.874 22 113.736 22L 109.366 22C 109.09 22 108.952 21.8467 108.952 21.54L 108.952 8.959C 108.952 8.74433 108.867 8.637 108.699 8.637L 104.651 8.637C 104.298 8.637 104.122 8.49133 104.122 8.2L 104.122 5.463ZM 135.638 9.511C 135.27 9.11233 134.872 8.80567 134.442 8.591C 134.028 8.37633 133.423 8.269 132.625 8.269C 131.828 8.269 131.238 8.384 130.854 8.614C 130.471 8.844 130.279 9.12 130.279 9.442C 130.279 9.994 130.77 10.385 131.751 10.615L 135.569 11.604C 136.965 11.9567 138.015 12.5777 138.72 13.467C 139.426 14.341 139.778 15.3913 139.778 16.618C 139.778 17.7527 139.479 18.7417 138.881 19.585C 138.283 20.4283 137.425 21.08 136.305 21.54C 135.201 22 133.906 22.23 132.418 22.23C 130.732 22.23 129.191 21.954 127.795 21.402C 126.415 20.8347 125.457 20.0987 124.92 19.194C 124.844 19.0407 124.805 18.9257 124.805 18.849C 124.805 18.6957 124.89 18.5577 125.058 18.435L 127.427 16.802C 127.596 16.6947 127.749 16.641 127.887 16.641C 128.056 16.641 128.194 16.71 128.301 16.848C 128.823 17.5227 129.352 17.998 129.888 18.274C 130.425 18.55 131.138 18.688 132.027 18.688C 132.886 18.688 133.561 18.573 134.051 18.343C 134.557 18.0977 134.81 17.768 134.81 17.354C 134.81 17.0627 134.688 16.8097 134.442 16.595C 134.197 16.3803 133.837 16.2193 133.361 16.112L 129.865 15.261C 128.485 14.9237 127.389 14.295 126.576 13.375C 125.764 12.4397 125.357 11.3663 125.357 10.155C 125.357 9.15833 125.649 8.246 126.231 7.418C 126.814 6.57467 127.642 5.91533 128.715 5.44C 129.789 4.94933 131.031 4.704 132.441 4.704C 133.821 4.704 135.102 4.934 136.282 5.394C 137.463 5.83867 138.314 6.43667 138.835 7.188C 138.943 7.326 138.996 7.45633 138.996 7.579C 138.996 7.68633 138.943 7.786 138.835 7.878L 136.328 9.695C 136.252 9.75633 136.167 9.787 136.075 9.787C 135.968 9.787 135.822 9.695 135.638 9.511ZM 156.566 4.934C 156.842 4.934 156.98 5.026 156.98 5.21C 156.98 5.256 156.949 5.34033 156.888 5.463L 151.506 14.157C 151.399 14.3103 151.33 14.479 151.299 14.663C 151.284 14.847 151.276 15.1843 151.276 15.675L 151.276 21.333C 151.276 21.5783 151.215 21.7547 151.092 21.862C 150.969 21.954 150.778 22 150.517 22L 146.653 22C 146.423 22 146.262 21.954 146.17 21.862C 146.093 21.77 146.055 21.6243 146.055 21.425L 146.055 15.376C 146.055 15.1613 146.032 14.9927 145.986 14.87C 145.94 14.732 145.856 14.5633 145.733 14.364L 140.351 5.578C 140.29 5.47067 140.259 5.371 140.259 5.279C 140.259 5.049 140.428 4.934 140.765 4.934L 145.388 4.934C 145.603 4.934 145.756 4.96467 145.848 5.026C 145.955 5.08733 146.063 5.21767 146.17 5.417L 148.999 10.523C 149.076 10.6763 149.137 10.753 149.183 10.753C 149.26 10.753 149.329 10.684 149.39 10.546L 152.173 5.417C 152.265 5.21767 152.365 5.08733 152.472 5.026C 152.579 4.96467 152.74 4.934 152.955 4.934L 156.566 4.934ZM 173.481 4.934C 173.711 4.934 173.826 5.06433 173.826 5.325L 173.826 21.586C 173.826 21.7087 173.772 21.8083 173.665 21.885C 173.573 21.9617 173.45 22 173.297 22L 170.146 22C 170.008 22 169.893 21.977 169.801 21.931C 169.724 21.885 169.632 21.793 169.525 21.655L 163.2 13.076C 163.138 12.9993 163.085 12.9687 163.039 12.984C 162.993 12.9993 162.97 13.0453 162.97 13.122L 162.97 21.494C 162.985 21.678 162.947 21.8083 162.855 21.885C 162.778 21.9617 162.632 22 162.418 22L 159.29 22C 158.906 22 158.715 21.8467 158.715 21.54L 158.715 5.463C 158.715 5.11033 158.883 4.934 159.221 4.934L 162.97 4.934C 163.169 4.934 163.315 4.96467 163.407 5.026C 163.514 5.072 163.629 5.17933 163.752 5.348L 169.272 13.03C 169.364 13.168 169.448 13.237 169.525 13.237C 169.601 13.237 169.64 13.1373 169.64 12.938L 169.64 5.417C 169.64 5.095 169.808 4.934 170.146 4.934L 173.481 4.934ZM 179.547 4.934C 181.371 4.934 182.506 4.94167 182.951 4.957C 185.941 5.06433 188.202 5.877 189.736 7.395C 191.269 8.89767 192.036 10.9063 192.036 13.421C 192.036 15.1077 191.691 16.595 191.001 17.883C 190.311 19.171 189.283 20.183 187.919 20.919C 186.554 21.6397 184.89 22 182.928 22L 176.879 22C 176.649 22 176.48 21.9463 176.373 21.839C 176.265 21.7317 176.212 21.5553 176.212 21.31L 176.212 5.509C 176.212 5.29433 176.258 5.14867 176.35 5.072C 176.442 4.98 176.603 4.934 176.833 4.934L 179.547 4.934ZM 181.663 8.545C 181.586 8.545 181.525 8.568 181.479 8.614C 181.448 8.66 181.433 8.74433 181.433 8.867L 181.433 18.044C 181.433 18.182 181.456 18.274 181.502 18.32C 181.548 18.366 181.632 18.389 181.755 18.389L 181.916 18.389C 183.434 18.389 184.584 17.998 185.366 17.216C 186.163 16.4187 186.562 15.1307 186.562 13.352C 186.562 11.8187 186.263 10.6763 185.665 9.925C 185.067 9.17367 184.193 8.74433 183.043 8.637L 181.663 8.545ZM 198.763 4.934C 199.039 4.934 199.177 5.095 199.177 5.417L 199.177 21.333C 199.177 21.5783 199.115 21.7547 198.993 21.862C 198.87 21.954 198.678 22 198.418 22L 194.577 22C 194.347 22 194.186 21.954 194.094 21.862C 194.002 21.77 193.956 21.6243 193.956 21.425L 193.956 5.463C 193.956 5.29433 193.994 5.164 194.071 5.072C 194.147 4.98 194.255 4.934 194.393 4.934L 198.763 4.934ZM 209.229 4.704C 210.502 4.704 211.652 4.934 212.679 5.394C 213.706 5.83867 214.55 6.45967 215.209 7.257C 215.868 8.05433 216.298 8.96667 216.497 9.994C 216.543 10.178 216.566 10.3237 216.566 10.431C 216.566 10.569 216.535 10.661 216.474 10.707C 216.428 10.753 216.336 10.7837 216.198 10.799L 212.173 11.052C 212.02 11.052 211.92 11.029 211.874 10.983C 211.828 10.9217 211.782 10.799 211.736 10.615C 211.598 9.879 211.345 9.304 210.977 8.89C 210.609 8.46067 210.072 8.246 209.367 8.246C 208.462 8.246 207.765 8.64467 207.274 9.442C 206.783 10.2393 206.538 11.535 206.538 13.329C 206.538 15.1843 206.76 16.503 207.205 17.285C 207.665 18.067 208.378 18.458 209.344 18.458C 210.157 18.458 210.847 18.251 211.414 17.837C 211.997 17.423 212.48 16.733 212.863 15.767C 212.909 15.629 213.039 15.56 213.254 15.56C 213.361 15.56 213.446 15.5677 213.507 15.583L 216.382 16.158C 216.612 16.2347 216.727 16.411 216.727 16.687C 216.727 17.1163 216.459 17.7833 215.922 18.688C 215.401 19.5773 214.573 20.39 213.438 21.126C 212.319 21.862 210.9 22.23 209.183 22.23C 207.558 22.23 206.132 21.8467 204.905 21.08C 203.678 20.298 202.728 19.2323 202.053 17.883C 201.394 16.5183 201.064 14.9697 201.064 13.237C 201.064 11.5197 201.394 10.017 202.053 8.729C 202.728 7.441 203.678 6.452 204.905 5.762C 206.147 5.05667 207.588 4.704 209.229 4.704ZM 217.625 22C 217.502 22 217.402 21.9617 217.326 21.885C 217.249 21.793 217.211 21.6703 217.211 21.517C 217.211 21.4097 217.234 21.287 217.28 21.149L 222.846 5.463C 222.922 5.26367 223.007 5.12567 223.099 5.049C 223.191 4.97233 223.336 4.934 223.536 4.934L 228.067 4.934C 228.251 4.934 228.412 4.99533 228.55 5.118C 228.703 5.22533 228.818 5.371 228.895 5.555L 234.415 21.218C 234.445 21.3407 234.461 21.4327 234.461 21.494C 234.461 21.632 234.43 21.7547 234.369 21.862C 234.307 21.954 234.215 22 234.093 22L 229.585 22C 229.324 22 229.155 21.8697 229.079 21.609L 228.182 18.964C 228.136 18.8567 228.09 18.7877 228.044 18.757C 228.013 18.711 227.944 18.688 227.837 18.688L 222.961 18.688C 222.777 18.688 222.662 18.7723 222.616 18.941L 221.673 21.655C 221.581 21.885 221.397 22 221.121 22L 217.625 22ZM 226.687 14.778C 226.855 14.778 226.94 14.7013 226.94 14.548C 226.94 14.5173 226.924 14.4407 226.894 14.318L 225.514 10.385C 225.483 10.3083 225.437 10.27 225.376 10.27C 225.314 10.27 225.268 10.3083 225.238 10.385L 223.835 14.295C 223.804 14.3563 223.789 14.433 223.789 14.525C 223.789 14.6937 223.881 14.778 224.065 14.778L 226.687 14.778ZM 232.89 5.463C 232.89 5.30967 232.936 5.187 233.028 5.095C 233.135 4.98767 233.281 4.934 233.465 4.934L 247.219 4.934C 247.403 4.934 247.541 4.98767 247.633 5.095C 247.74 5.187 247.794 5.30967 247.794 5.463L 247.794 8.2C 247.794 8.49133 247.625 8.637 247.288 8.637L 243.217 8.637C 243.033 8.637 242.941 8.71367 242.941 8.867L 242.941 21.494C 242.941 21.6627 242.903 21.793 242.826 21.885C 242.749 21.9617 242.642 22 242.504 22L 238.134 22C 237.858 22 237.72 21.8467 237.72 21.54L 237.72 8.959C 237.72 8.74433 237.636 8.637 237.467 8.637L 233.419 8.637C 233.066 8.637 232.89 8.49133 232.89 8.2L 232.89 5.463ZM 249.636 5.463C 249.636 5.11033 249.782 4.934 250.073 4.934L 262.493 4.934C 262.769 4.934 262.907 5.095 262.907 5.417L 262.884 8.085C 262.884 8.499 262.685 8.706 262.286 8.706L 255.386 8.706C 255.034 8.706 254.857 8.85167 254.857 9.143L 254.857 11.098C 254.857 11.2513 254.896 11.374 254.972 11.466C 255.049 11.5427 255.149 11.581 255.271 11.581L 259.411 11.581C 259.733 11.581 259.894 11.7343 259.894 12.041L 259.894 14.893C 259.894 15.1537 259.756 15.284 259.48 15.284L 255.225 15.284C 255.118 15.284 255.026 15.3147 254.949 15.376C 254.888 15.4373 254.857 15.514 254.857 15.606L 254.857 17.906C 254.857 18.0287 254.873 18.113 254.903 18.159C 254.949 18.205 255.026 18.228 255.133 18.228L 262.608 18.228C 262.946 18.228 263.114 18.3737 263.114 18.665L 263.114 21.494C 263.114 21.6473 263.068 21.77 262.976 21.862C 262.884 21.954 262.746 22 262.562 22L 250.257 22C 250.027 22 249.866 21.954 249.774 21.862C 249.682 21.77 249.636 21.6243 249.636 21.425L 249.636 5.463Z"/>
<path id="path1_stroke" d="M 0.421111 -0.907009C -0.0798159 -1.13958 -0.674436 -0.922039 -0.907009 -0.421111C -1.13958 0.0798159 -0.922039 0.674436 -0.421111 0.907009L 0.421111 -0.907009ZM 56.0144 33.3742C 56.4971 33.6424 57.1059 33.4684 57.3742 32.9856C 57.6424 32.5029 57.4684 31.8941 56.9856 31.6258L 56.0144 33.3742ZM -0.421111 0.907009C 27.5716 13.9036 46.8281 28.2707 56.0144 33.3742L 56.9856 31.6258C 48.1719 26.7293 28.4284 12.0964 0.421111 -0.907009L -0.421111 0.907009Z"/>
</defs>
</svg>

